<svg xmlns="http://www.w3.org/2000/svg" width="108.97" height="55.31"><path data-name="logo-title" class="cls-1" d="M3.06 1.53v3.48H0V1.53h3.06zm0 25.77H0V9.19h3.06V27.3zm7.23 0h-3.2V9.12h3.06v2.27a7.006 7.006 0 0 1 5.42-2.59q7.53 0 7.53 8.1v10.4h-3.17v-9.7c0-3.9-1.56-5.86-4.69-5.86a4.2 4.2 0 0 0-4.11 2.35 11.5 11.5 0 0 0-.84 4.94v8.27zm31.15-6.06h3.5q-2.4 6.57-9.06 6.56a9.659 9.659 0 0 1-6.85-16.45 9.567 9.567 0 0 1 7-2.73 9.11 9.11 0 0 1 5.54 1.69A9.47 9.47 0 0 1 44.94 15h-3.5a6.27 6.27 0 0 0-10.14-1.43 7.013 7.013 0 0 0 0 9.27 5.887 5.887 0 0 0 4.58 2.02c2.81 0 4.67-1.21 5.56-3.62zm46.05 6.06h-3.05v-2.55a9 9 0 0 1-6.55 2.94 9.594 9.594 0 0 1-6.97-2.72 9.184 9.184 0 0 1-2.78-6.81 9.085 9.085 0 0 1 2.77-6.67 9.487 9.487 0 0 1 13.42.04V.01h3.16V27.3zm-16.04-9.14a6.463 6.463 0 0 0 1.91 4.68 6.338 6.338 0 0 0 4.71 1.95 5.994 5.994 0 0 0 4.46-1.99 6.286 6.286 0 0 0 1.91-4.46 6.565 6.565 0 0 0-1.88-4.65A6.03 6.03 0 0 0 78 11.71a6.346 6.346 0 0 0-4.64 1.89 6.226 6.226 0 0 0-1.91 4.56zm-9.65-3.68a6.631 6.631 0 0 1 1.07 3.73 6.468 6.468 0 0 1-1.84 4.61 6.03 6.03 0 0 1-4.56 1.93 6.233 6.233 0 0 1-2.86-.64l-2.04 2.41a9.5 9.5 0 0 0 4.9 1.28 9.191 9.191 0 0 0 6.87-2.94 9.612 9.612 0 0 0 2.84-6.88 8.744 8.744 0 0 0-2.28-5.97zm-10.74 7.29a6.509 6.509 0 0 1-.99-3.56 6.662 6.662 0 0 1 1.8-4.66 5.882 5.882 0 0 1 4.52-1.95 6.432 6.432 0 0 1 2.81.6l2.04-2.4a9.589 9.589 0 0 0-4.96-1.32 8.932 8.932 0 0 0-6.72 2.94 9.562 9.562 0 0 0-2.8 6.81 9.108 9.108 0 0 0 2.17 6.04zm54.54-.47a6.235 6.235 0 0 1-4.75 3.24 7.254 7.254 0 0 1-4.47-.96l10.33-11.73a14.163 14.163 0 0 0-4.01-2.47 9.5 9.5 0 0 0-5.75-.46 9.313 9.313 0 0 0-4.86 3.03 8.7 8.7 0 0 0-2.22 6.88 9.344 9.344 0 0 0 3.45 6.48 9.784 9.784 0 0 0 7.11 2.33 9.229 9.229 0 0 0 6.64-3.2 9.541 9.541 0 0 0 1.9-3.14h-3.37zm-12.62-3.62a5.85 5.85 0 0 1 1.56-3.82q2.985-3.39 7.76-1.31l-8.05 9.15a6.9 6.9 0 0 1-1.27-4.02z" fill="#fff"/><path class="cls-2" d="M70.18 42.99a4.627 4.627 0 0 0-6.69-.04 4.827 4.827 0 0 0 3.49 8.3 4.441 4.441 0 0 0 3.2-1.44v.63a3.652 3.652 0 0 1-.83 2.49 3 3 0 0 1-2.37.93 3.452 3.452 0 0 1-1.59-.35 1.689 1.689 0 0 1-.95-1.25h-1.85a3.6 3.6 0 0 0 1.29 2.19 4.9 4.9 0 0 0 3.19.87 4.326 4.326 0 0 0 3.62-1.54 6.082 6.082 0 0 0 1.08-3.85v-8.15h-1.59v1.21zm-5.45 1.06a3.134 3.134 0 0 1 2.31-.99 2.938 2.938 0 0 1 2.27 1.03 3.409 3.409 0 0 1 .94 2.37 3.271 3.271 0 0 1-.96 2.29 2.935 2.935 0 0 1-2.22 1.02 3.149 3.149 0 0 1-2.38-.96 3.35 3.35 0 0 1-.92-2.44 3.2 3.2 0 0 1 .96-2.32zm10.6 1.84c0-1.74.7-2.61 2.11-2.61v-1.65a2.74 2.74 0 0 0-2.22 1.36v-1.2h-1.46v9.28h1.57v-5.18zm5.34-1.83a2.862 2.862 0 0 1 2.25-1 3.03 3.03 0 0 1 2.3.98 3.541 3.541 0 0 1 0 4.74 2.971 2.971 0 0 1-2.27.99 3 3 0 0 1-2.28-.98 3.36 3.36 0 0 1-.9-2.36 3.4 3.4 0 0 1 .9-2.37zm5.63-1.15a4.766 4.766 0 0 0-3.44-1.44 4.4 4.4 0 0 0-3.34 1.5 4.942 4.942 0 0 0-1.39 3.47 4.757 4.757 0 0 0 1.41 3.45 4.615 4.615 0 0 0 3.41 1.43 4.484 4.484 0 0 0 3.41-1.5 4.961 4.961 0 0 0 1.41-3.51 4.583 4.583 0 0 0-1.47-3.4zm9.06-1.12v4.25a5.981 5.981 0 0 1-.5 2.77 1.937 1.937 0 0 1-1.9.94q-2.22 0-2.22-3.09v-4.87h-1.56v5.34a4.507 4.507 0 0 0 .89 2.96 3.385 3.385 0 0 0 2.8 1.18 3.232 3.232 0 0 0 2.56-1.37v1.17h1.52v-9.28h-1.59zm6.03 2.28a3.016 3.016 0 0 1 2.24-1.01 3.105 3.105 0 0 1 2.34.99 3.393 3.393 0 0 1 .95 2.41 3.21 3.21 0 0 1-.96 2.33 3.13 3.13 0 0 1-2.31.98 2.961 2.961 0 0 1-2.27-1.02 3.4 3.4 0 0 1-.94-2.38 3.291 3.291 0 0 1 .95-2.3zm5.82 5.83a5.107 5.107 0 0 0-.02-6.94 4.709 4.709 0 0 0-3.49-1.38 4.437 4.437 0 0 0-3.19 1.44v-1.24h-1.59V55.1h1.59v-5.26a4.61 4.61 0 0 0 3.33 1.45 4.556 4.556 0 0 0 3.37-1.39z" fill="#72b63b"/></svg>